<?xml version="1.0" encoding="utf-8" standalone="no"?>
<!DOCTYPE svg PUBLIC "-//W3C//DTD SVG 1.1//EN"
  "http://www.w3.org/Graphics/SVG/1.1/DTD/svg11.dtd">
<svg xmlns:xlink="http://www.w3.org/1999/xlink" width="460.8pt" height="345.6pt" viewBox="0 0 460.8 345.6" xmlns="http://www.w3.org/2000/svg" version="1.1">
 <metadata>
  <rdf:RDF xmlns:dc="http://purl.org/dc/elements/1.1/" xmlns:cc="http://creativecommons.org/ns#" xmlns:rdf="http://www.w3.org/1999/02/22-rdf-syntax-ns#">
   <cc:Work>
    <dc:type rdf:resource="http://purl.org/dc/dcmitype/StillImage"/>
    <dc:date>2023-08-21T11:43:04.336525</dc:date>
    <dc:format>image/svg+xml</dc:format>
    <dc:creator>
     <cc:Agent>
      <dc:title>Matplotlib v3.7.1, https://matplotlib.org/</dc:title>
     </cc:Agent>
    </dc:creator>
   </cc:Work>
  </rdf:RDF>
 </metadata>
 <defs>
  <style type="text/css">*{stroke-linejoin: round; stroke-linecap: butt}</style>
 </defs>
 <g id="figure_1">
  <g id="patch_1">
   <path d="M 0 345.6 
L 460.8 345.6 
L 460.8 0 
L 0 0 
z
" style="fill: #ffffff"/>
  </g>
  <g id="axes_1">
   <g id="patch_2">
    <path d="M 58.43 299.32 
L 450 299.32 
L 450 37.80224 
L 58.43 37.80224 
z
" style="fill: #ffffff"/>
   </g>
   <g id="matplotlib.axis_1">
    <g id="xtick_1">
     <g id="line2d_1">
      <defs>
       <path id="mb788961b6a" d="M 0 0 
L 0 3.5 
" style="stroke: #000000; stroke-width: 0.8"/>
      </defs>
      <g>
       <use xlink:href="#mb788961b6a" x="58.43" y="299.32" style="stroke: #000000; stroke-width: 0.8"/>
      </g>
     </g>
     <g id="text_1">
      <!-- 0 -->
      <g transform="translate(54.6125 315.438125) scale(0.12 -0.12)">
       <defs>
        <path id="DejaVuSans-30" d="M 2034 4250 
Q 1547 4250 1301 3770 
Q 1056 3291 1056 2328 
Q 1056 1369 1301 889 
Q 1547 409 2034 409 
Q 2525 409 2770 889 
Q 3016 1369 3016 2328 
Q 3016 3291 2770 3770 
Q 2525 4250 2034 4250 
z
M 2034 4750 
Q 2819 4750 3233 4129 
Q 3647 3509 3647 2328 
Q 3647 1150 3233 529 
Q 2819 -91 2034 -91 
Q 1250 -91 836 529 
Q 422 1150 422 2328 
Q 422 3509 836 4129 
Q 1250 4750 2034 4750 
z
" transform="scale(0.015625)"/>
       </defs>
       <use xlink:href="#DejaVuSans-30"/>
      </g>
     </g>
    </g>
    <g id="xtick_2">
     <g id="line2d_2">
      <g>
       <use xlink:href="#mb788961b6a" x="116.742733" y="299.32" style="stroke: #000000; stroke-width: 0.8"/>
      </g>
     </g>
     <g id="text_2">
      <!-- 10 -->
      <g transform="translate(109.107733 315.438125) scale(0.12 -0.12)">
       <defs>
        <path id="DejaVuSans-31" d="M 794 531 
L 1825 531 
L 1825 4091 
L 703 3866 
L 703 4441 
L 1819 4666 
L 2450 4666 
L 2450 531 
L 3481 531 
L 3481 0 
L 794 0 
L 794 531 
z
" transform="scale(0.015625)"/>
       </defs>
       <use xlink:href="#DejaVuSans-31"/>
       <use xlink:href="#DejaVuSans-30" x="63.623047"/>
      </g>
     </g>
    </g>
    <g id="xtick_3">
     <g id="line2d_3">
      <g>
       <use xlink:href="#mb788961b6a" x="175.055465" y="299.32" style="stroke: #000000; stroke-width: 0.8"/>
      </g>
     </g>
     <g id="text_3">
      <!-- 20 -->
      <g transform="translate(167.420465 315.438125) scale(0.12 -0.12)">
       <defs>
        <path id="DejaVuSans-32" d="M 1228 531 
L 3431 531 
L 3431 0 
L 469 0 
L 469 531 
Q 828 903 1448 1529 
Q 2069 2156 2228 2338 
Q 2531 2678 2651 2914 
Q 2772 3150 2772 3378 
Q 2772 3750 2511 3984 
Q 2250 4219 1831 4219 
Q 1534 4219 1204 4116 
Q 875 4013 500 3803 
L 500 4441 
Q 881 4594 1212 4672 
Q 1544 4750 1819 4750 
Q 2544 4750 2975 4387 
Q 3406 4025 3406 3419 
Q 3406 3131 3298 2873 
Q 3191 2616 2906 2266 
Q 2828 2175 2409 1742 
Q 1991 1309 1228 531 
z
" transform="scale(0.015625)"/>
       </defs>
       <use xlink:href="#DejaVuSans-32"/>
       <use xlink:href="#DejaVuSans-30" x="63.623047"/>
      </g>
     </g>
    </g>
    <g id="xtick_4">
     <g id="line2d_4">
      <g>
       <use xlink:href="#mb788961b6a" x="233.368198" y="299.32" style="stroke: #000000; stroke-width: 0.8"/>
      </g>
     </g>
     <g id="text_4">
      <!-- 30 -->
      <g transform="translate(225.733198 315.438125) scale(0.12 -0.12)">
       <defs>
        <path id="DejaVuSans-33" d="M 2597 2516 
Q 3050 2419 3304 2112 
Q 3559 1806 3559 1356 
Q 3559 666 3084 287 
Q 2609 -91 1734 -91 
Q 1441 -91 1130 -33 
Q 819 25 488 141 
L 488 750 
Q 750 597 1062 519 
Q 1375 441 1716 441 
Q 2309 441 2620 675 
Q 2931 909 2931 1356 
Q 2931 1769 2642 2001 
Q 2353 2234 1838 2234 
L 1294 2234 
L 1294 2753 
L 1863 2753 
Q 2328 2753 2575 2939 
Q 2822 3125 2822 3475 
Q 2822 3834 2567 4026 
Q 2313 4219 1838 4219 
Q 1578 4219 1281 4162 
Q 984 4106 628 3988 
L 628 4550 
Q 988 4650 1302 4700 
Q 1616 4750 1894 4750 
Q 2613 4750 3031 4423 
Q 3450 4097 3450 3541 
Q 3450 3153 3228 2886 
Q 3006 2619 2597 2516 
z
" transform="scale(0.015625)"/>
       </defs>
       <use xlink:href="#DejaVuSans-33"/>
       <use xlink:href="#DejaVuSans-30" x="63.623047"/>
      </g>
     </g>
    </g>
    <g id="xtick_5">
     <g id="line2d_5">
      <g>
       <use xlink:href="#mb788961b6a" x="291.680931" y="299.32" style="stroke: #000000; stroke-width: 0.8"/>
      </g>
     </g>
     <g id="text_5">
      <!-- 40 -->
      <g transform="translate(284.045931 315.438125) scale(0.12 -0.12)">
       <defs>
        <path id="DejaVuSans-34" d="M 2419 4116 
L 825 1625 
L 2419 1625 
L 2419 4116 
z
M 2253 4666 
L 3047 4666 
L 3047 1625 
L 3713 1625 
L 3713 1100 
L 3047 1100 
L 3047 0 
L 2419 0 
L 2419 1100 
L 313 1100 
L 313 1709 
L 2253 4666 
z
" transform="scale(0.015625)"/>
       </defs>
       <use xlink:href="#DejaVuSans-34"/>
       <use xlink:href="#DejaVuSans-30" x="63.623047"/>
      </g>
     </g>
    </g>
    <g id="xtick_6">
     <g id="line2d_6">
      <g>
       <use xlink:href="#mb788961b6a" x="349.993663" y="299.32" style="stroke: #000000; stroke-width: 0.8"/>
      </g>
     </g>
     <g id="text_6">
      <!-- 50 -->
      <g transform="translate(342.358663 315.438125) scale(0.12 -0.12)">
       <defs>
        <path id="DejaVuSans-35" d="M 691 4666 
L 3169 4666 
L 3169 4134 
L 1269 4134 
L 1269 2991 
Q 1406 3038 1543 3061 
Q 1681 3084 1819 3084 
Q 2600 3084 3056 2656 
Q 3513 2228 3513 1497 
Q 3513 744 3044 326 
Q 2575 -91 1722 -91 
Q 1428 -91 1123 -41 
Q 819 9 494 109 
L 494 744 
Q 775 591 1075 516 
Q 1375 441 1709 441 
Q 2250 441 2565 725 
Q 2881 1009 2881 1497 
Q 2881 1984 2565 2268 
Q 2250 2553 1709 2553 
Q 1456 2553 1204 2497 
Q 953 2441 691 2322 
L 691 4666 
z
" transform="scale(0.015625)"/>
       </defs>
       <use xlink:href="#DejaVuSans-35"/>
       <use xlink:href="#DejaVuSans-30" x="63.623047"/>
      </g>
     </g>
    </g>
    <g id="xtick_7">
     <g id="line2d_7">
      <g>
       <use xlink:href="#mb788961b6a" x="408.306396" y="299.32" style="stroke: #000000; stroke-width: 0.8"/>
      </g>
     </g>
     <g id="text_7">
      <!-- 60 -->
      <g transform="translate(400.671396 315.438125) scale(0.12 -0.12)">
       <defs>
        <path id="DejaVuSans-36" d="M 2113 2584 
Q 1688 2584 1439 2293 
Q 1191 2003 1191 1497 
Q 1191 994 1439 701 
Q 1688 409 2113 409 
Q 2538 409 2786 701 
Q 3034 994 3034 1497 
Q 3034 2003 2786 2293 
Q 2538 2584 2113 2584 
z
M 3366 4563 
L 3366 3988 
Q 3128 4100 2886 4159 
Q 2644 4219 2406 4219 
Q 1781 4219 1451 3797 
Q 1122 3375 1075 2522 
Q 1259 2794 1537 2939 
Q 1816 3084 2150 3084 
Q 2853 3084 3261 2657 
Q 3669 2231 3669 1497 
Q 3669 778 3244 343 
Q 2819 -91 2113 -91 
Q 1303 -91 875 529 
Q 447 1150 447 2328 
Q 447 3434 972 4092 
Q 1497 4750 2381 4750 
Q 2619 4750 2861 4703 
Q 3103 4656 3366 4563 
z
" transform="scale(0.015625)"/>
       </defs>
       <use xlink:href="#DejaVuSans-36"/>
       <use xlink:href="#DejaVuSans-30" x="63.623047"/>
      </g>
     </g>
    </g>
    <g id="text_8">
     <!-- Kernel Dispatch [N] -->
     <g transform="translate(184.391875 332.8755) scale(0.144 -0.144)">
      <defs>
       <path id="DejaVuSans-4b" d="M 628 4666 
L 1259 4666 
L 1259 2694 
L 3353 4666 
L 4166 4666 
L 1850 2491 
L 4331 0 
L 3500 0 
L 1259 2247 
L 1259 0 
L 628 0 
L 628 4666 
z
" transform="scale(0.015625)"/>
       <path id="DejaVuSans-65" d="M 3597 1894 
L 3597 1613 
L 953 1613 
Q 991 1019 1311 708 
Q 1631 397 2203 397 
Q 2534 397 2845 478 
Q 3156 559 3463 722 
L 3463 178 
Q 3153 47 2828 -22 
Q 2503 -91 2169 -91 
Q 1331 -91 842 396 
Q 353 884 353 1716 
Q 353 2575 817 3079 
Q 1281 3584 2069 3584 
Q 2775 3584 3186 3129 
Q 3597 2675 3597 1894 
z
M 3022 2063 
Q 3016 2534 2758 2815 
Q 2500 3097 2075 3097 
Q 1594 3097 1305 2825 
Q 1016 2553 972 2059 
L 3022 2063 
z
" transform="scale(0.015625)"/>
       <path id="DejaVuSans-72" d="M 2631 2963 
Q 2534 3019 2420 3045 
Q 2306 3072 2169 3072 
Q 1681 3072 1420 2755 
Q 1159 2438 1159 1844 
L 1159 0 
L 581 0 
L 581 3500 
L 1159 3500 
L 1159 2956 
Q 1341 3275 1631 3429 
Q 1922 3584 2338 3584 
Q 2397 3584 2469 3576 
Q 2541 3569 2628 3553 
L 2631 2963 
z
" transform="scale(0.015625)"/>
       <path id="DejaVuSans-6e" d="M 3513 2113 
L 3513 0 
L 2938 0 
L 2938 2094 
Q 2938 2591 2744 2837 
Q 2550 3084 2163 3084 
Q 1697 3084 1428 2787 
Q 1159 2491 1159 1978 
L 1159 0 
L 581 0 
L 581 3500 
L 1159 3500 
L 1159 2956 
Q 1366 3272 1645 3428 
Q 1925 3584 2291 3584 
Q 2894 3584 3203 3211 
Q 3513 2838 3513 2113 
z
" transform="scale(0.015625)"/>
       <path id="DejaVuSans-6c" d="M 603 4863 
L 1178 4863 
L 1178 0 
L 603 0 
L 603 4863 
z
" transform="scale(0.015625)"/>
       <path id="DejaVuSans-20" transform="scale(0.015625)"/>
       <path id="DejaVuSans-44" d="M 1259 4147 
L 1259 519 
L 2022 519 
Q 2988 519 3436 956 
Q 3884 1394 3884 2338 
Q 3884 3275 3436 3711 
Q 2988 4147 2022 4147 
L 1259 4147 
z
M 628 4666 
L 1925 4666 
Q 3281 4666 3915 4102 
Q 4550 3538 4550 2338 
Q 4550 1131 3912 565 
Q 3275 0 1925 0 
L 628 0 
L 628 4666 
z
" transform="scale(0.015625)"/>
       <path id="DejaVuSans-69" d="M 603 3500 
L 1178 3500 
L 1178 0 
L 603 0 
L 603 3500 
z
M 603 4863 
L 1178 4863 
L 1178 4134 
L 603 4134 
L 603 4863 
z
" transform="scale(0.015625)"/>
       <path id="DejaVuSans-73" d="M 2834 3397 
L 2834 2853 
Q 2591 2978 2328 3040 
Q 2066 3103 1784 3103 
Q 1356 3103 1142 2972 
Q 928 2841 928 2578 
Q 928 2378 1081 2264 
Q 1234 2150 1697 2047 
L 1894 2003 
Q 2506 1872 2764 1633 
Q 3022 1394 3022 966 
Q 3022 478 2636 193 
Q 2250 -91 1575 -91 
Q 1294 -91 989 -36 
Q 684 19 347 128 
L 347 722 
Q 666 556 975 473 
Q 1284 391 1588 391 
Q 1994 391 2212 530 
Q 2431 669 2431 922 
Q 2431 1156 2273 1281 
Q 2116 1406 1581 1522 
L 1381 1569 
Q 847 1681 609 1914 
Q 372 2147 372 2553 
Q 372 3047 722 3315 
Q 1072 3584 1716 3584 
Q 2034 3584 2315 3537 
Q 2597 3491 2834 3397 
z
" transform="scale(0.015625)"/>
       <path id="DejaVuSans-70" d="M 1159 525 
L 1159 -1331 
L 581 -1331 
L 581 3500 
L 1159 3500 
L 1159 2969 
Q 1341 3281 1617 3432 
Q 1894 3584 2278 3584 
Q 2916 3584 3314 3078 
Q 3713 2572 3713 1747 
Q 3713 922 3314 415 
Q 2916 -91 2278 -91 
Q 1894 -91 1617 61 
Q 1341 213 1159 525 
z
M 3116 1747 
Q 3116 2381 2855 2742 
Q 2594 3103 2138 3103 
Q 1681 3103 1420 2742 
Q 1159 2381 1159 1747 
Q 1159 1113 1420 752 
Q 1681 391 2138 391 
Q 2594 391 2855 752 
Q 3116 1113 3116 1747 
z
" transform="scale(0.015625)"/>
       <path id="DejaVuSans-61" d="M 2194 1759 
Q 1497 1759 1228 1600 
Q 959 1441 959 1056 
Q 959 750 1161 570 
Q 1363 391 1709 391 
Q 2188 391 2477 730 
Q 2766 1069 2766 1631 
L 2766 1759 
L 2194 1759 
z
M 3341 1997 
L 3341 0 
L 2766 0 
L 2766 531 
Q 2569 213 2275 61 
Q 1981 -91 1556 -91 
Q 1019 -91 701 211 
Q 384 513 384 1019 
Q 384 1609 779 1909 
Q 1175 2209 1959 2209 
L 2766 2209 
L 2766 2266 
Q 2766 2663 2505 2880 
Q 2244 3097 1772 3097 
Q 1472 3097 1187 3025 
Q 903 2953 641 2809 
L 641 3341 
Q 956 3463 1253 3523 
Q 1550 3584 1831 3584 
Q 2591 3584 2966 3190 
Q 3341 2797 3341 1997 
z
" transform="scale(0.015625)"/>
       <path id="DejaVuSans-74" d="M 1172 4494 
L 1172 3500 
L 2356 3500 
L 2356 3053 
L 1172 3053 
L 1172 1153 
Q 1172 725 1289 603 
Q 1406 481 1766 481 
L 2356 481 
L 2356 0 
L 1766 0 
Q 1100 0 847 248 
Q 594 497 594 1153 
L 594 3053 
L 172 3053 
L 172 3500 
L 594 3500 
L 594 4494 
L 1172 4494 
z
" transform="scale(0.015625)"/>
       <path id="DejaVuSans-63" d="M 3122 3366 
L 3122 2828 
Q 2878 2963 2633 3030 
Q 2388 3097 2138 3097 
Q 1578 3097 1268 2742 
Q 959 2388 959 1747 
Q 959 1106 1268 751 
Q 1578 397 2138 397 
Q 2388 397 2633 464 
Q 2878 531 3122 666 
L 3122 134 
Q 2881 22 2623 -34 
Q 2366 -91 2075 -91 
Q 1284 -91 818 406 
Q 353 903 353 1747 
Q 353 2603 823 3093 
Q 1294 3584 2113 3584 
Q 2378 3584 2631 3529 
Q 2884 3475 3122 3366 
z
" transform="scale(0.015625)"/>
       <path id="DejaVuSans-68" d="M 3513 2113 
L 3513 0 
L 2938 0 
L 2938 2094 
Q 2938 2591 2744 2837 
Q 2550 3084 2163 3084 
Q 1697 3084 1428 2787 
Q 1159 2491 1159 1978 
L 1159 0 
L 581 0 
L 581 4863 
L 1159 4863 
L 1159 2956 
Q 1366 3272 1645 3428 
Q 1925 3584 2291 3584 
Q 2894 3584 3203 3211 
Q 3513 2838 3513 2113 
z
" transform="scale(0.015625)"/>
       <path id="DejaVuSans-5b" d="M 550 4863 
L 1875 4863 
L 1875 4416 
L 1125 4416 
L 1125 -397 
L 1875 -397 
L 1875 -844 
L 550 -844 
L 550 4863 
z
" transform="scale(0.015625)"/>
       <path id="DejaVuSans-4e" d="M 628 4666 
L 1478 4666 
L 3547 763 
L 3547 4666 
L 4159 4666 
L 4159 0 
L 3309 0 
L 1241 3903 
L 1241 0 
L 628 0 
L 628 4666 
z
" transform="scale(0.015625)"/>
       <path id="DejaVuSans-5d" d="M 1947 4863 
L 1947 -844 
L 622 -844 
L 622 -397 
L 1369 -397 
L 1369 4416 
L 622 4416 
L 622 4863 
L 1947 4863 
z
" transform="scale(0.015625)"/>
      </defs>
      <use xlink:href="#DejaVuSans-4b"/>
      <use xlink:href="#DejaVuSans-65" x="60.576172"/>
      <use xlink:href="#DejaVuSans-72" x="122.099609"/>
      <use xlink:href="#DejaVuSans-6e" x="161.462891"/>
      <use xlink:href="#DejaVuSans-65" x="224.841797"/>
      <use xlink:href="#DejaVuSans-6c" x="286.365234"/>
      <use xlink:href="#DejaVuSans-20" x="314.148438"/>
      <use xlink:href="#DejaVuSans-44" x="345.935547"/>
      <use xlink:href="#DejaVuSans-69" x="422.9375"/>
      <use xlink:href="#DejaVuSans-73" x="450.720703"/>
      <use xlink:href="#DejaVuSans-70" x="502.820312"/>
      <use xlink:href="#DejaVuSans-61" x="566.296875"/>
      <use xlink:href="#DejaVuSans-74" x="627.576172"/>
      <use xlink:href="#DejaVuSans-63" x="666.785156"/>
      <use xlink:href="#DejaVuSans-68" x="721.765625"/>
      <use xlink:href="#DejaVuSans-20" x="785.144531"/>
      <use xlink:href="#DejaVuSans-5b" x="816.931641"/>
      <use xlink:href="#DejaVuSans-4e" x="855.945312"/>
      <use xlink:href="#DejaVuSans-5d" x="930.75"/>
     </g>
    </g>
   </g>
   <g id="matplotlib.axis_2">
    <g id="ytick_1">
     <g id="line2d_8">
      <defs>
       <path id="mc1e45fdb99" d="M 0 0 
L -3.5 0 
" style="stroke: #000000; stroke-width: 0.8"/>
      </defs>
      <g>
       <use xlink:href="#mc1e45fdb99" x="58.43" y="287.432829" style="stroke: #000000; stroke-width: 0.8"/>
      </g>
     </g>
     <g id="text_9">
      <!-- 0 -->
      <g transform="translate(43.795 291.991892) scale(0.12 -0.12)">
       <use xlink:href="#DejaVuSans-30"/>
      </g>
     </g>
    </g>
    <g id="ytick_2">
     <g id="line2d_9">
      <g>
       <use xlink:href="#mc1e45fdb99" x="58.43" y="238.350317" style="stroke: #000000; stroke-width: 0.8"/>
      </g>
     </g>
     <g id="text_10">
      <!-- 20 -->
      <g transform="translate(36.16 242.909379) scale(0.12 -0.12)">
       <use xlink:href="#DejaVuSans-32"/>
       <use xlink:href="#DejaVuSans-30" x="63.623047"/>
      </g>
     </g>
    </g>
    <g id="ytick_3">
     <g id="line2d_10">
      <g>
       <use xlink:href="#mc1e45fdb99" x="58.43" y="189.267805" style="stroke: #000000; stroke-width: 0.8"/>
      </g>
     </g>
     <g id="text_11">
      <!-- 40 -->
      <g transform="translate(36.16 193.826867) scale(0.12 -0.12)">
       <use xlink:href="#DejaVuSans-34"/>
       <use xlink:href="#DejaVuSans-30" x="63.623047"/>
      </g>
     </g>
    </g>
    <g id="ytick_4">
     <g id="line2d_11">
      <g>
       <use xlink:href="#mc1e45fdb99" x="58.43" y="140.185293" style="stroke: #000000; stroke-width: 0.8"/>
      </g>
     </g>
     <g id="text_12">
      <!-- 60 -->
      <g transform="translate(36.16 144.744355) scale(0.12 -0.12)">
       <use xlink:href="#DejaVuSans-36"/>
       <use xlink:href="#DejaVuSans-30" x="63.623047"/>
      </g>
     </g>
    </g>
    <g id="ytick_5">
     <g id="line2d_12">
      <g>
       <use xlink:href="#mc1e45fdb99" x="58.43" y="91.102781" style="stroke: #000000; stroke-width: 0.8"/>
      </g>
     </g>
     <g id="text_13">
      <!-- 80 -->
      <g transform="translate(36.16 95.661843) scale(0.12 -0.12)">
       <defs>
        <path id="DejaVuSans-38" d="M 2034 2216 
Q 1584 2216 1326 1975 
Q 1069 1734 1069 1313 
Q 1069 891 1326 650 
Q 1584 409 2034 409 
Q 2484 409 2743 651 
Q 3003 894 3003 1313 
Q 3003 1734 2745 1975 
Q 2488 2216 2034 2216 
z
M 1403 2484 
Q 997 2584 770 2862 
Q 544 3141 544 3541 
Q 544 4100 942 4425 
Q 1341 4750 2034 4750 
Q 2731 4750 3128 4425 
Q 3525 4100 3525 3541 
Q 3525 3141 3298 2862 
Q 3072 2584 2669 2484 
Q 3125 2378 3379 2068 
Q 3634 1759 3634 1313 
Q 3634 634 3220 271 
Q 2806 -91 2034 -91 
Q 1263 -91 848 271 
Q 434 634 434 1313 
Q 434 1759 690 2068 
Q 947 2378 1403 2484 
z
M 1172 3481 
Q 1172 3119 1398 2916 
Q 1625 2713 2034 2713 
Q 2441 2713 2670 2916 
Q 2900 3119 2900 3481 
Q 2900 3844 2670 4047 
Q 2441 4250 2034 4250 
Q 1625 4250 1398 4047 
Q 1172 3844 1172 3481 
z
" transform="scale(0.015625)"/>
       </defs>
       <use xlink:href="#DejaVuSans-38"/>
       <use xlink:href="#DejaVuSans-30" x="63.623047"/>
      </g>
     </g>
    </g>
    <g id="ytick_6">
     <g id="line2d_13">
      <g>
       <use xlink:href="#mc1e45fdb99" x="58.43" y="42.020268" style="stroke: #000000; stroke-width: 0.8"/>
      </g>
     </g>
     <g id="text_14">
      <!-- 100 -->
      <g transform="translate(28.525 46.579331) scale(0.12 -0.12)">
       <use xlink:href="#DejaVuSans-31"/>
       <use xlink:href="#DejaVuSans-30" x="63.623047"/>
       <use xlink:href="#DejaVuSans-30" x="127.246094"/>
      </g>
     </g>
    </g>
    <g id="text_15">
     <!-- Percent -->
     <g transform="translate(21.53025 195.64437) rotate(-90) scale(0.144 -0.144)">
      <defs>
       <path id="DejaVuSans-50" d="M 1259 4147 
L 1259 2394 
L 2053 2394 
Q 2494 2394 2734 2622 
Q 2975 2850 2975 3272 
Q 2975 3691 2734 3919 
Q 2494 4147 2053 4147 
L 1259 4147 
z
M 628 4666 
L 2053 4666 
Q 2838 4666 3239 4311 
Q 3641 3956 3641 3272 
Q 3641 2581 3239 2228 
Q 2838 1875 2053 1875 
L 1259 1875 
L 1259 0 
L 628 0 
L 628 4666 
z
" transform="scale(0.015625)"/>
      </defs>
      <use xlink:href="#DejaVuSans-50"/>
      <use xlink:href="#DejaVuSans-65" x="56.677734"/>
      <use xlink:href="#DejaVuSans-72" x="118.201172"/>
      <use xlink:href="#DejaVuSans-63" x="157.064453"/>
      <use xlink:href="#DejaVuSans-65" x="212.044922"/>
      <use xlink:href="#DejaVuSans-6e" x="273.568359"/>
      <use xlink:href="#DejaVuSans-74" x="336.947266"/>
     </g>
    </g>
   </g>
   <g id="line2d_14">
    <defs>
     <path id="mf7e5d00153" d="M -5.5 -0 
L 5.5 5.5 
L 5.5 -5.5 
z
" style="stroke: #21918c; stroke-linejoin: miter"/>
    </defs>
    <g clip-path="url(#pae68a78108)">
     <use xlink:href="#mf7e5d00153" x="64.261273" y="287.432829" style="fill-opacity: 0; stroke: #21918c; stroke-linejoin: miter"/>
     <use xlink:href="#mf7e5d00153" x="70.092547" y="283.598258" style="fill-opacity: 0; stroke: #21918c; stroke-linejoin: miter"/>
     <use xlink:href="#mf7e5d00153" x="75.92382" y="279.763687" style="fill-opacity: 0; stroke: #21918c; stroke-linejoin: miter"/>
     <use xlink:href="#mf7e5d00153" x="81.755093" y="275.929115" style="fill-opacity: 0; stroke: #21918c; stroke-linejoin: miter"/>
     <use xlink:href="#mf7e5d00153" x="87.586366" y="272.094544" style="fill-opacity: 0; stroke: #21918c; stroke-linejoin: miter"/>
     <use xlink:href="#mf7e5d00153" x="93.41764" y="268.259973" style="fill-opacity: 0; stroke: #21918c; stroke-linejoin: miter"/>
     <use xlink:href="#mf7e5d00153" x="99.248913" y="264.425402" style="fill-opacity: 0; stroke: #21918c; stroke-linejoin: miter"/>
     <use xlink:href="#mf7e5d00153" x="105.080186" y="260.59083" style="fill-opacity: 0; stroke: #21918c; stroke-linejoin: miter"/>
     <use xlink:href="#mf7e5d00153" x="110.911459" y="256.756259" style="fill-opacity: 0; stroke: #21918c; stroke-linejoin: miter"/>
     <use xlink:href="#mf7e5d00153" x="116.742733" y="252.921688" style="fill-opacity: 0; stroke: #21918c; stroke-linejoin: miter"/>
     <use xlink:href="#mf7e5d00153" x="122.574006" y="249.087116" style="fill-opacity: 0; stroke: #21918c; stroke-linejoin: miter"/>
     <use xlink:href="#mf7e5d00153" x="128.405279" y="245.252545" style="fill-opacity: 0; stroke: #21918c; stroke-linejoin: miter"/>
     <use xlink:href="#mf7e5d00153" x="134.236552" y="241.417974" style="fill-opacity: 0; stroke: #21918c; stroke-linejoin: miter"/>
     <use xlink:href="#mf7e5d00153" x="140.067826" y="237.583403" style="fill-opacity: 0; stroke: #21918c; stroke-linejoin: miter"/>
     <use xlink:href="#mf7e5d00153" x="145.899099" y="233.748831" style="fill-opacity: 0; stroke: #21918c; stroke-linejoin: miter"/>
     <use xlink:href="#mf7e5d00153" x="151.730372" y="229.91426" style="fill-opacity: 0; stroke: #21918c; stroke-linejoin: miter"/>
     <use xlink:href="#mf7e5d00153" x="157.561646" y="226.079689" style="fill-opacity: 0; stroke: #21918c; stroke-linejoin: miter"/>
     <use xlink:href="#mf7e5d00153" x="163.392919" y="222.245118" style="fill-opacity: 0; stroke: #21918c; stroke-linejoin: miter"/>
     <use xlink:href="#mf7e5d00153" x="169.224192" y="218.410546" style="fill-opacity: 0; stroke: #21918c; stroke-linejoin: miter"/>
     <use xlink:href="#mf7e5d00153" x="175.055465" y="214.575975" style="fill-opacity: 0; stroke: #21918c; stroke-linejoin: miter"/>
     <use xlink:href="#mf7e5d00153" x="180.886739" y="210.741404" style="fill-opacity: 0; stroke: #21918c; stroke-linejoin: miter"/>
     <use xlink:href="#mf7e5d00153" x="186.718012" y="206.906833" style="fill-opacity: 0; stroke: #21918c; stroke-linejoin: miter"/>
     <use xlink:href="#mf7e5d00153" x="192.549285" y="203.072261" style="fill-opacity: 0; stroke: #21918c; stroke-linejoin: miter"/>
     <use xlink:href="#mf7e5d00153" x="198.380558" y="199.23769" style="fill-opacity: 0; stroke: #21918c; stroke-linejoin: miter"/>
     <use xlink:href="#mf7e5d00153" x="204.211832" y="195.403119" style="fill-opacity: 0; stroke: #21918c; stroke-linejoin: miter"/>
     <use xlink:href="#mf7e5d00153" x="210.043105" y="191.568548" style="fill-opacity: 0; stroke: #21918c; stroke-linejoin: miter"/>
     <use xlink:href="#mf7e5d00153" x="215.874378" y="187.733976" style="fill-opacity: 0; stroke: #21918c; stroke-linejoin: miter"/>
     <use xlink:href="#mf7e5d00153" x="221.705652" y="183.899405" style="fill-opacity: 0; stroke: #21918c; stroke-linejoin: miter"/>
     <use xlink:href="#mf7e5d00153" x="227.536925" y="180.064834" style="fill-opacity: 0; stroke: #21918c; stroke-linejoin: miter"/>
     <use xlink:href="#mf7e5d00153" x="233.368198" y="176.230263" style="fill-opacity: 0; stroke: #21918c; stroke-linejoin: miter"/>
     <use xlink:href="#mf7e5d00153" x="239.199471" y="172.395691" style="fill-opacity: 0; stroke: #21918c; stroke-linejoin: miter"/>
     <use xlink:href="#mf7e5d00153" x="245.030745" y="168.56112" style="fill-opacity: 0; stroke: #21918c; stroke-linejoin: miter"/>
     <use xlink:href="#mf7e5d00153" x="250.862018" y="168.56112" style="fill-opacity: 0; stroke: #21918c; stroke-linejoin: miter"/>
     <use xlink:href="#mf7e5d00153" x="256.693291" y="164.726549" style="fill-opacity: 0; stroke: #21918c; stroke-linejoin: miter"/>
     <use xlink:href="#mf7e5d00153" x="262.524564" y="160.891977" style="fill-opacity: 0; stroke: #21918c; stroke-linejoin: miter"/>
     <use xlink:href="#mf7e5d00153" x="268.355838" y="157.057406" style="fill-opacity: 0; stroke: #21918c; stroke-linejoin: miter"/>
     <use xlink:href="#mf7e5d00153" x="274.187111" y="153.222835" style="fill-opacity: 0; stroke: #21918c; stroke-linejoin: miter"/>
     <use xlink:href="#mf7e5d00153" x="280.018384" y="149.388264" style="fill-opacity: 0; stroke: #21918c; stroke-linejoin: miter"/>
     <use xlink:href="#mf7e5d00153" x="285.849657" y="145.553692" style="fill-opacity: 0; stroke: #21918c; stroke-linejoin: miter"/>
     <use xlink:href="#mf7e5d00153" x="291.680931" y="141.719121" style="fill-opacity: 0; stroke: #21918c; stroke-linejoin: miter"/>
     <use xlink:href="#mf7e5d00153" x="297.512204" y="137.88455" style="fill-opacity: 0; stroke: #21918c; stroke-linejoin: miter"/>
     <use xlink:href="#mf7e5d00153" x="303.343477" y="134.049979" style="fill-opacity: 0; stroke: #21918c; stroke-linejoin: miter"/>
     <use xlink:href="#mf7e5d00153" x="309.174751" y="130.215407" style="fill-opacity: 0; stroke: #21918c; stroke-linejoin: miter"/>
     <use xlink:href="#mf7e5d00153" x="315.006024" y="126.380836" style="fill-opacity: 0; stroke: #21918c; stroke-linejoin: miter"/>
     <use xlink:href="#mf7e5d00153" x="320.837297" y="122.546265" style="fill-opacity: 0; stroke: #21918c; stroke-linejoin: miter"/>
     <use xlink:href="#mf7e5d00153" x="326.66857" y="118.711694" style="fill-opacity: 0; stroke: #21918c; stroke-linejoin: miter"/>
     <use xlink:href="#mf7e5d00153" x="332.499844" y="114.877122" style="fill-opacity: 0; stroke: #21918c; stroke-linejoin: miter"/>
     <use xlink:href="#mf7e5d00153" x="338.331117" y="111.042551" style="fill-opacity: 0; stroke: #21918c; stroke-linejoin: miter"/>
     <use xlink:href="#mf7e5d00153" x="344.16239" y="107.20798" style="fill-opacity: 0; stroke: #21918c; stroke-linejoin: miter"/>
     <use xlink:href="#mf7e5d00153" x="349.993663" y="103.373409" style="fill-opacity: 0; stroke: #21918c; stroke-linejoin: miter"/>
     <use xlink:href="#mf7e5d00153" x="355.824937" y="99.538837" style="fill-opacity: 0; stroke: #21918c; stroke-linejoin: miter"/>
     <use xlink:href="#mf7e5d00153" x="361.65621" y="95.704266" style="fill-opacity: 0; stroke: #21918c; stroke-linejoin: miter"/>
     <use xlink:href="#mf7e5d00153" x="367.487483" y="91.869695" style="fill-opacity: 0; stroke: #21918c; stroke-linejoin: miter"/>
     <use xlink:href="#mf7e5d00153" x="373.318757" y="88.035124" style="fill-opacity: 0; stroke: #21918c; stroke-linejoin: miter"/>
     <use xlink:href="#mf7e5d00153" x="379.15003" y="84.200552" style="fill-opacity: 0; stroke: #21918c; stroke-linejoin: miter"/>
     <use xlink:href="#mf7e5d00153" x="384.981303" y="80.365981" style="fill-opacity: 0; stroke: #21918c; stroke-linejoin: miter"/>
     <use xlink:href="#mf7e5d00153" x="390.812576" y="76.53141" style="fill-opacity: 0; stroke: #21918c; stroke-linejoin: miter"/>
     <use xlink:href="#mf7e5d00153" x="396.64385" y="72.696838" style="fill-opacity: 0; stroke: #21918c; stroke-linejoin: miter"/>
     <use xlink:href="#mf7e5d00153" x="402.475123" y="68.862267" style="fill-opacity: 0; stroke: #21918c; stroke-linejoin: miter"/>
     <use xlink:href="#mf7e5d00153" x="408.306396" y="65.027696" style="fill-opacity: 0; stroke: #21918c; stroke-linejoin: miter"/>
     <use xlink:href="#mf7e5d00153" x="414.137669" y="61.193125" style="fill-opacity: 0; stroke: #21918c; stroke-linejoin: miter"/>
     <use xlink:href="#mf7e5d00153" x="419.968943" y="57.358553" style="fill-opacity: 0; stroke: #21918c; stroke-linejoin: miter"/>
     <use xlink:href="#mf7e5d00153" x="425.800216" y="53.523982" style="fill-opacity: 0; stroke: #21918c; stroke-linejoin: miter"/>
     <use xlink:href="#mf7e5d00153" x="431.631489" y="49.689411" style="fill-opacity: 0; stroke: #21918c; stroke-linejoin: miter"/>
    </g>
   </g>
   <g id="patch_3">
    <path d="M 58.43 299.32 
L 58.43 37.80224 
" style="fill: none; stroke: #000000; stroke-width: 0.8; stroke-linejoin: miter; stroke-linecap: square"/>
   </g>
   <g id="patch_4">
    <path d="M 450 299.32 
L 450 37.80224 
" style="fill: none; stroke: #000000; stroke-width: 0.8; stroke-linejoin: miter; stroke-linecap: square"/>
   </g>
   <g id="patch_5">
    <path d="M 58.43 299.32 
L 450 299.32 
" style="fill: none; stroke: #000000; stroke-width: 0.8; stroke-linejoin: miter; stroke-linecap: square"/>
   </g>
   <g id="patch_6">
    <path d="M 58.43 37.80224 
L 450 37.80224 
" style="fill: none; stroke: #000000; stroke-width: 0.8; stroke-linejoin: miter; stroke-linecap: square"/>
   </g>
   <g id="legend_1">
    <g id="patch_7">
     <path d="M 60.43 32.571885 
L 448 32.571885 
Q 450 32.571885 450 30.571885 
L 450 12.635385 
Q 450 10.635385 448 10.635385 
L 60.43 10.635385 
Q 58.43 10.635385 58.43 12.635385 
L 58.43 30.571885 
Q 58.43 32.571885 60.43 32.571885 
z
" style="fill: #ffffff; opacity: 0.8; stroke: #cccccc; stroke-linejoin: miter"/>
    </g>
    <g id="line2d_15">
     <g>
      <use xlink:href="#mf7e5d00153" x="72.43" y="22.077135" style="fill-opacity: 0; stroke: #21918c; stroke-linejoin: miter"/>
     </g>
    </g>
    <g id="text_16">
     <!-- Conflict Rate -->
     <g transform="translate(90.43 25.577135) scale(0.144 -0.144)">
      <defs>
       <path id="DejaVuSans-43" d="M 4122 4306 
L 4122 3641 
Q 3803 3938 3442 4084 
Q 3081 4231 2675 4231 
Q 1875 4231 1450 3742 
Q 1025 3253 1025 2328 
Q 1025 1406 1450 917 
Q 1875 428 2675 428 
Q 3081 428 3442 575 
Q 3803 722 4122 1019 
L 4122 359 
Q 3791 134 3420 21 
Q 3050 -91 2638 -91 
Q 1578 -91 968 557 
Q 359 1206 359 2328 
Q 359 3453 968 4101 
Q 1578 4750 2638 4750 
Q 3056 4750 3426 4639 
Q 3797 4528 4122 4306 
z
" transform="scale(0.015625)"/>
       <path id="DejaVuSans-6f" d="M 1959 3097 
Q 1497 3097 1228 2736 
Q 959 2375 959 1747 
Q 959 1119 1226 758 
Q 1494 397 1959 397 
Q 2419 397 2687 759 
Q 2956 1122 2956 1747 
Q 2956 2369 2687 2733 
Q 2419 3097 1959 3097 
z
M 1959 3584 
Q 2709 3584 3137 3096 
Q 3566 2609 3566 1747 
Q 3566 888 3137 398 
Q 2709 -91 1959 -91 
Q 1206 -91 779 398 
Q 353 888 353 1747 
Q 353 2609 779 3096 
Q 1206 3584 1959 3584 
z
" transform="scale(0.015625)"/>
       <path id="DejaVuSans-66" d="M 2375 4863 
L 2375 4384 
L 1825 4384 
Q 1516 4384 1395 4259 
Q 1275 4134 1275 3809 
L 1275 3500 
L 2222 3500 
L 2222 3053 
L 1275 3053 
L 1275 0 
L 697 0 
L 697 3053 
L 147 3053 
L 147 3500 
L 697 3500 
L 697 3744 
Q 697 4328 969 4595 
Q 1241 4863 1831 4863 
L 2375 4863 
z
" transform="scale(0.015625)"/>
       <path id="DejaVuSans-52" d="M 2841 2188 
Q 3044 2119 3236 1894 
Q 3428 1669 3622 1275 
L 4263 0 
L 3584 0 
L 2988 1197 
Q 2756 1666 2539 1819 
Q 2322 1972 1947 1972 
L 1259 1972 
L 1259 0 
L 628 0 
L 628 4666 
L 2053 4666 
Q 2853 4666 3247 4331 
Q 3641 3997 3641 3322 
Q 3641 2881 3436 2590 
Q 3231 2300 2841 2188 
z
M 1259 4147 
L 1259 2491 
L 2053 2491 
Q 2509 2491 2742 2702 
Q 2975 2913 2975 3322 
Q 2975 3731 2742 3939 
Q 2509 4147 2053 4147 
L 1259 4147 
z
" transform="scale(0.015625)"/>
      </defs>
      <use xlink:href="#DejaVuSans-43"/>
      <use xlink:href="#DejaVuSans-6f" x="69.824219"/>
      <use xlink:href="#DejaVuSans-6e" x="131.005859"/>
      <use xlink:href="#DejaVuSans-66" x="194.384766"/>
      <use xlink:href="#DejaVuSans-6c" x="229.589844"/>
      <use xlink:href="#DejaVuSans-69" x="257.373047"/>
      <use xlink:href="#DejaVuSans-63" x="285.15625"/>
      <use xlink:href="#DejaVuSans-74" x="340.136719"/>
      <use xlink:href="#DejaVuSans-20" x="379.345703"/>
      <use xlink:href="#DejaVuSans-52" x="411.132812"/>
      <use xlink:href="#DejaVuSans-61" x="478.365234"/>
      <use xlink:href="#DejaVuSans-74" x="539.644531"/>
      <use xlink:href="#DejaVuSans-65" x="578.853516"/>
     </g>
    </g>
   </g>
  </g>
 </g>
 <defs>
  <clipPath id="pae68a78108">
   <rect x="58.43" y="37.80224" width="391.57" height="261.51776"/>
  </clipPath>
 </defs>
</svg>
